<?xml version="1.0" encoding="UTF-8"?>
<svg xmlns="http://www.w3.org/2000/svg" width="1200" height="830" viewBox="0 0 1200 830"
     font-family="'Inter', 'JetBrains Sans', -apple-system, BlinkMacSystemFont, 'Segoe UI', sans-serif">
  <style>
    .mono { font-family: 'JetBrains Mono', 'SF Mono', 'Fira Code', 'Cascadia Code', monospace; }
  </style>
  <rect width="1200" height="830" fill="#FFFFFF"/>
  <defs>
    <filter id="shadow" x="-4%" y="-4%" width="108%" height="108%">
      <feDropShadow dx="0" dy="2" stdDeviation="6" flood-color="#000" flood-opacity="0.06"/>
    </filter>
    <marker id="arrow" markerWidth="10" markerHeight="7" refX="9" refY="3.5" orient="auto">
      <polygon points="0 0, 10 3.5, 0 7" fill="#CBD5E1"/>
    </marker>
  </defs>
  <text x="600" y="56" text-anchor="middle" font-size="28" font-weight="bold" fill="#191F28">Priority Donation 시나리오</text>
  <line x1="100" y1="250" x2="1100" y2="250" stroke="#8B95A1" stroke-width="2"/>
  <circle cx="200" cy="250" r="6" fill="#F97316" stroke="#FFFFFF" stroke-width="2"/>
  <rect x="110" y="155" width="180" height="70" rx="16" fill="#FFFFFF" stroke="#F2F4F6" stroke-width="1" filter="url(#shadow)"/>
  <text x="200" y="185" font-size="14" fill="#191F28" text-anchor="middle" font-weight="normal">L(pri=1)이</text>
  <text x="200" y="205" font-size="14" fill="#191F28" text-anchor="middle" font-weight="normal">Lock A 획득</text>
  <line x1="200" y1="225" x2="200" y2="242" stroke="#F2F4F6" stroke-width="1"/>
  <rect x="150" y="274" width="100" height="24" rx="12" fill="#FFF7ED"/>
  <text x="200" y="290" font-size="12" fill="#C2410C" text-anchor="middle" font-weight="bold">pri=1</text>
  <circle cx="450" cy="250" r="6" fill="#F97316" stroke="#FFFFFF" stroke-width="2"/>
  <rect x="360" y="155" width="180" height="70" rx="16" fill="#FFFFFF" stroke="#F2F4F6" stroke-width="1" filter="url(#shadow)"/>
  <text x="450" y="185" font-size="14" fill="#191F28" text-anchor="middle" font-weight="normal">H(pri=63)이</text>
  <text x="450" y="205" font-size="14" fill="#191F28" text-anchor="middle" font-weight="normal">Lock A 요청</text>
  <line x1="450" y1="225" x2="450" y2="242" stroke="#F2F4F6" stroke-width="1"/>
  <rect x="400" y="274" width="100" height="24" rx="12" fill="#FFF7ED"/>
  <text x="450" y="290" font-size="12" fill="#C2410C" text-anchor="middle" font-weight="bold">63 기부</text>
  <circle cx="700" cy="250" r="6" fill="#F97316" stroke="#FFFFFF" stroke-width="2"/>
  <rect x="610" y="155" width="180" height="70" rx="16" fill="#FFFFFF" stroke="#F2F4F6" stroke-width="1" filter="url(#shadow)"/>
  <text x="700" y="185" font-size="14" fill="#191F28" text-anchor="middle" font-weight="normal">L(pri=63) 완료</text>
  <text x="700" y="205" font-size="14" fill="#191F28" text-anchor="middle" font-weight="normal">Lock A 해제</text>
  <line x1="700" y1="225" x2="700" y2="242" stroke="#F2F4F6" stroke-width="1"/>
  <rect x="650" y="274" width="100" height="24" rx="12" fill="#FFF7ED"/>
  <text x="700" y="290" font-size="12" fill="#C2410C" text-anchor="middle" font-weight="bold">pri=1 복원</text>
  <circle cx="950" cy="250" r="6" fill="#F97316" stroke="#FFFFFF" stroke-width="2"/>
  <rect x="860" y="155" width="180" height="70" rx="16" fill="#FFFFFF" stroke="#F2F4F6" stroke-width="1" filter="url(#shadow)"/>
  <text x="950" y="185" font-size="14" fill="#191F28" text-anchor="middle" font-weight="normal">H(pri=63)</text>
  <text x="950" y="205" font-size="14" fill="#191F28" text-anchor="middle" font-weight="normal">Lock A 획득</text>
  <line x1="950" y1="225" x2="950" y2="242" stroke="#F2F4F6" stroke-width="1"/>
  <rect x="900" y="274" width="100" height="24" rx="12" fill="#FFF7ED"/>
  <text x="950" y="290" font-size="12" fill="#C2410C" text-anchor="middle" font-weight="bold">pri=63</text>
  <rect x="80" y="380" width="1040" height="130" rx="16" fill="#FFFFFF" stroke="#F2F4F6" stroke-width="1" filter="url(#shadow)"/>
  <rect x="80" y="396" width="4" height="98" rx="2" fill="#EF4444"/>
  <text x="108" y="412" font-size="16" fill="#191F28" text-anchor="start" font-weight="bold">기부 없을 때 (우선순위 역전 발생)</text>
  <rect x="112" y="436" width="300" height="28" rx="6" fill="#FEF2F2" stroke="#EF4444" stroke-width="1"/>
  <text x="262" y="455" font-size="12" fill="#DC2626" text-anchor="middle" font-weight="bold">L(pri=1) Lock A 보유</text>
  <rect x="428" y="436" width="200" height="28" rx="6" fill="#FFF7ED" stroke="#F97316" stroke-width="1"/>
  <text x="528" y="455" font-size="12" fill="#C2410C" text-anchor="middle" font-weight="bold">M(pri=31) 선점</text>
  <rect x="644" y="436" width="300" height="28" rx="6" fill="#EFF6FF" stroke="#3B82F6" stroke-width="1"/>
  <text x="794" y="455" font-size="12" fill="#1D4ED8" text-anchor="middle" font-weight="bold">H(pri=63) 대기 -- 역전!</text>
  <text x="968" y="455" font-size="14" fill="#DC2626" text-anchor="start" font-weight="normal">H가 L보다 늦게 실행됨</text>
  <rect x="80" y="540" width="1040" height="130" rx="16" fill="#FFFFFF" stroke="#F2F4F6" stroke-width="1" filter="url(#shadow)"/>
  <rect x="80" y="556" width="4" height="98" rx="2" fill="#22C55E"/>
  <text x="108" y="572" font-size="16" fill="#191F28" text-anchor="start" font-weight="bold">기부 있을 때 (해결)</text>
  <rect x="112" y="596" width="200" height="28" rx="6" fill="#F0FDF4" stroke="#22C55E" stroke-width="1"/>
  <text x="212" y="615" font-size="12" fill="#15803D" text-anchor="middle" font-weight="bold">L(pri=63) 기부받아 실행</text>
  <rect x="328" y="596" width="300" height="28" rx="6" fill="#EFF6FF" stroke="#3B82F6" stroke-width="1"/>
  <text x="478" y="615" font-size="12" fill="#1D4ED8" text-anchor="middle" font-weight="bold">H(pri=63) 바로 실행</text>
  <rect x="644" y="596" width="200" height="28" rx="6" fill="#FFF7ED" stroke="#F97316" stroke-width="1"/>
  <text x="744" y="615" font-size="12" fill="#C2410C" text-anchor="middle" font-weight="bold">M(pri=31) 마지막</text>
  <text x="868" y="615" font-size="14" fill="#15803D" text-anchor="start" font-weight="normal">H가 빠르게 실행됨</text>
</svg>
