<?xml version="1.0" encoding="UTF-8"?>
<svg xmlns="http://www.w3.org/2000/svg" width="1200" height="900" viewBox="0 0 1200 900"
     font-family="system-ui, -apple-system, sans-serif">
  <rect width="1200" height="900" fill="#FFFFFF"/>
  <text x="600" y="52" text-anchor="middle" font-size="32" font-weight="bold" fill="#191F28">Priority Donation 타임라인</text>
  <defs>
    <marker id="arr_pd" markerWidth="16" markerHeight="11" refX="14" refY="5.5" orient="auto">
      <polygon points="0 0, 16 5.5, 0 11" fill="#4E5968" />
    </marker>
  </defs>
  <line x1="80" y1="300" x2="1120" y2="300" stroke="#E5E8EB" stroke-width="3" />
  <circle cx="160" cy="300" r="10" fill="#F97316" />
  <text x="160" y="280" font-size="22" fill="#C2410C" text-anchor="middle" font-weight="bold">T1</text>
  <rect x="63" y="145" width="200" height="88" rx="10" fill="#F2F4F6" />
  <rect x="60" y="142" width="200" height="88" rx="10" fill="#FFF7ED" stroke="#F97316" stroke-width="2" />
  <text x="160" y="170" font-size="15" fill="#191F28" text-anchor="middle" font-weight="normal">L(pri=1)이</text>
  <text x="160" y="194" font-size="15" fill="#191F28" text-anchor="middle" font-weight="normal">Lock A 획득</text>
  <rect x="120" y="320" width="80" height="28" rx="14" fill="#F97316" />
  <text x="160" y="340" font-size="14" fill="#FFFFFF" text-anchor="middle" font-weight="bold">pri=1</text>
  <circle cx="420" cy="300" r="10" fill="#F97316" />
  <text x="420" y="280" font-size="22" fill="#C2410C" text-anchor="middle" font-weight="bold">T2</text>
  <rect x="323" y="145" width="200" height="88" rx="10" fill="#F2F4F6" />
  <rect x="320" y="142" width="200" height="88" rx="10" fill="#FFF7ED" stroke="#F97316" stroke-width="2" />
  <text x="420" y="170" font-size="15" fill="#191F28" text-anchor="middle" font-weight="normal">H(pri=63)이</text>
  <text x="420" y="194" font-size="15" fill="#191F28" text-anchor="middle" font-weight="normal">Lock A 요청</text>
  <rect x="380" y="320" width="80" height="28" rx="14" fill="#F97316" />
  <text x="420" y="340" font-size="14" fill="#FFFFFF" text-anchor="middle" font-weight="bold">pri=63->L 기부</text>
  <circle cx="680" cy="300" r="10" fill="#F97316" />
  <text x="680" y="280" font-size="22" fill="#C2410C" text-anchor="middle" font-weight="bold">T3</text>
  <rect x="583" y="145" width="200" height="88" rx="10" fill="#F2F4F6" />
  <rect x="580" y="142" width="200" height="88" rx="10" fill="#FFF7ED" stroke="#F97316" stroke-width="2" />
  <text x="680" y="170" font-size="15" fill="#191F28" text-anchor="middle" font-weight="normal">L(pri=63) 실행 완료</text>
  <text x="680" y="194" font-size="15" fill="#191F28" text-anchor="middle" font-weight="normal">Lock A 해제</text>
  <rect x="640" y="320" width="80" height="28" rx="14" fill="#F97316" />
  <text x="680" y="340" font-size="14" fill="#FFFFFF" text-anchor="middle" font-weight="bold">pri=1 복원</text>
  <circle cx="940" cy="300" r="10" fill="#F97316" />
  <text x="940" y="280" font-size="22" fill="#C2410C" text-anchor="middle" font-weight="bold">T4</text>
  <rect x="843" y="145" width="200" height="88" rx="10" fill="#F2F4F6" />
  <rect x="840" y="142" width="200" height="88" rx="10" fill="#FFF7ED" stroke="#F97316" stroke-width="2" />
  <text x="940" y="170" font-size="15" fill="#191F28" text-anchor="middle" font-weight="normal">H(pri=63)</text>
  <text x="940" y="194" font-size="15" fill="#191F28" text-anchor="middle" font-weight="normal">Lock A 획득</text>
  <rect x="900" y="320" width="80" height="28" rx="14" fill="#F97316" />
  <text x="940" y="340" font-size="14" fill="#FFFFFF" text-anchor="middle" font-weight="bold">pri=63</text>
  <text x="600" y="430" font-size="22" fill="#191F28" text-anchor="middle" font-weight="bold">비교</text>
  <rect x="83" y="453" width="1040" height="140" rx="12" fill="#F2F4F6" />
  <rect x="80" y="450" width="1040" height="140" rx="12" fill="#FEF2F2" stroke="#EF4444" stroke-width="2" />
  <text x="120" y="485" font-size="18" fill="#DC2626" text-anchor="start" font-weight="bold">기부 없을 때 (역전 발생)</text>
  <rect x="120" y="505" width="300" height="30" rx="6" fill="#FECACA" stroke="#EF4444" stroke-width="1" />
  <text x="270" y="526" font-size="13" fill="#DC2626" text-anchor="middle" font-weight="normal">L(pri=1) 실행 중 -- Lock A 보유</text>
  <rect x="450" y="505" width="80" height="30" rx="6" fill="#FED7AA" stroke="#F97316" stroke-width="1" />
  <text x="490" y="526" font-size="12" fill="#C2410C" text-anchor="middle" font-weight="normal">M(pri=31)</text>
  <rect x="560" y="505" width="300" height="30" rx="6" fill="#DBEAFE" stroke="#3B82F6" stroke-width="1" />
  <text x="710" y="526" font-size="13" fill="#1D4ED8" text-anchor="middle" font-weight="normal">H(pri=63) 대기 -- 역전!</text>
  <text x="900" y="555" font-size="15" fill="#DC2626" text-anchor="start" font-weight="normal">H가 L보다 늦게 실행됨</text>
  <rect x="83" y="613" width="1040" height="140" rx="12" fill="#F2F4F6" />
  <rect x="80" y="610" width="1040" height="140" rx="12" fill="#F0FDF4" stroke="#22C55E" stroke-width="2" />
  <text x="120" y="645" font-size="18" fill="#15803D" text-anchor="start" font-weight="bold">기부 있을 때 (해결)</text>
  <rect x="120" y="665" width="200" height="30" rx="6" fill="#BBF7D0" stroke="#22C55E" stroke-width="1" />
  <text x="220" y="686" font-size="13" fill="#15803D" text-anchor="middle" font-weight="normal">L(pri=63) 기부받아 실행</text>
  <rect x="350" y="665" width="250" height="30" rx="6" fill="#DBEAFE" stroke="#3B82F6" stroke-width="1" />
  <text x="475" y="686" font-size="13" fill="#1D4ED8" text-anchor="middle" font-weight="normal">H(pri=63) 바로 실행</text>
  <rect x="630" y="665" width="120" height="30" rx="6" fill="#FED7AA" stroke="#F97316" stroke-width="1" />
  <text x="690" y="686" font-size="12" fill="#C2410C" text-anchor="middle" font-weight="normal">M(pri=31)</text>
  <text x="790" y="715" font-size="15" fill="#15803D" text-anchor="start" font-weight="normal">H가 빠르게 실행됨</text>
</svg>
